<svg xmlns="http://www.w3.org/2000/svg" xmlns:xlink="http://www.w3.org/1999/xlink" version="1.1" id="Capa_1" x="0px" y="0px" viewBox="0 0 512 512" style="enable-background:new 0 0 512 512;" xml:space="preserve">
<path style="fill:#884D00;" d="M483.199,301.788c0,9.253-3.747,17.622-9.805,23.68c-6.068,6.058-14.437,9.805-23.68,9.805H62.285  c-18.486,0-33.485-14.988-33.485-33.485c0-4.955,1.072-9.649,2.998-13.875c1.676-3.674,3.987-6.984,6.807-9.805  c6.068-6.058,14.437-9.805,23.68-9.805h387.43c13.542,0,25.21,8.035,30.487,19.61C482.127,292.139,483.199,296.833,483.199,301.788z  "/>
<path style="fill:#AA6100;" d="M480.202,287.913c-1.676,3.664-3.997,6.984-6.807,9.795c-6.068,6.058-14.437,9.805-23.68,9.805  H62.285c-13.531,0-25.199-8.035-30.487-19.599c1.676-3.674,3.986-6.984,6.807-9.805c6.068-6.058,14.437-9.805,23.68-9.805h387.43  C463.256,268.303,474.924,276.339,480.202,287.913z"/>
<path style="fill: #770101;" d="M512,362.303c0,43.144-19.974,75.202-52.262,96.467c-32.298,21.275-76.909,31.757-126.184,31.757  H178.445C79.897,490.527,0,448.591,0,362.303c0-4.809,1.197-9.368,3.362-13.469c1.832-3.497,4.361-6.651,7.432-9.337  c6.662-5.839,15.884-9.451,26.053-9.451h438.307c14.853,0,27.656,7.702,33.485,18.788C510.803,352.936,512,357.495,512,362.303z"/>
<path style="fill: #920101;" d="M508.638,348.835c-6.953,28.728-24.377,51.106-48.9,67.26  c-32.298,21.275-76.909,31.757-126.184,31.757H178.445c-86.704,0-158.96-32.454-175.083-99.017c1.832-3.497,4.361-6.651,7.432-9.337  c6.662-5.839,15.884-9.451,26.053-9.451h438.307C490.007,330.047,502.809,337.75,508.638,348.835z"/>
<path style="fill:#EEBF00;" d="M398.387,254.252l-86.621,86.621c-2.175,2.165-4.497,4.08-6.953,5.735  c-18.34,12.417-43.466,10.513-59.714-5.735l-86.621-86.621L398.387,254.252L398.387,254.252z"/>
<path style="fill:#FFD422;" d="M398.387,254.252l-86.621,86.621c-2.175,2.165-4.497,4.08-6.953,5.735  c-6.609-2.248-12.813-6.006-18.08-11.283l-81.073-81.073H398.387z"/>
<path style="fill:#6DC82A;" d="M502.278,266.336c0,4.538-0.749,9.18-2.373,13.708c-6.36,17.747-23.388,24.637-36.659,14.832  l-15.915-11.751c-11.106-8.212-25.272-4.85-33.308,7.911l-0.677,1.072c-7.713,12.261-21.161,15.904-32.142,8.722l-35.639-23.305  c-8.223-5.371-18.08-4.788-25.865,1.551l-28.561,23.232c-8.202,6.672-18.652,6.953-27.073,0.718l-32.579-24.148  c-8.327-6.172-18.652-5.975-26.823,0.52L175,302.954c-7.963,6.318-17.976,6.682-26.209,0.968l-38.408-26.688  c-7.557-5.246-16.664-5.392-24.325-0.385l-35.826,23.43c-23.857,3.071-35.462-14.447-35.462-14.447  c-5.714-9.93-6.287-21.702-3.195-31.58c3.674-11.803,12.574-20.9,24.148-20.9h440.566c11.345,0,20.411,8.962,24.138,20.848  C501.633,258.009,502.278,262.121,502.278,266.336z"/>
<path style="fill:#7ED63E;" d="M500.426,254.2c-0.156,0.52-0.333,1.03-0.52,1.551c-6.36,17.757-23.388,24.648-36.659,14.843  l-15.915-11.762c-11.106-8.202-25.272-4.84-33.308,7.911l-0.677,1.082c-7.713,12.261-21.161,15.904-32.142,8.722l-35.639-23.305  c-8.223-5.381-18.08-4.788-25.865,1.551l-28.561,23.232c-8.202,6.672-18.652,6.943-27.073,0.708l-32.579-24.148  c-8.327-6.172-18.652-5.964-26.823,0.52L175,278.67c-7.963,6.308-17.976,6.682-26.209,0.968l-38.408-26.688  c-7.557-5.256-16.664-5.402-24.325-0.385l-35.826,23.419c-23.857,3.081-35.462-14.447-35.462-14.447  c-1.343-2.342-2.404-4.788-3.195-7.286c3.674-11.803,12.574-20.901,24.148-20.901h440.566  C487.633,233.351,496.699,242.313,500.426,254.2z"/>
<path style="fill: #c55e00;" d="M493.389,211.93c0.073,3.466-0.385,6.807-1.28,9.961c-4.028,14.031-16.956,24.294-32.277,24.294  c-60.162,0-220.403-1.353-244.571-0.552c-0.541,0.021-1.082,0.042-1.613,0.052c-30.518,1.155-37.471,6.047-37.471,22.316v59.527  c0,3.06-1.239,5.839-3.247,7.848c-2.009,2.009-4.778,3.247-7.838,3.247c-6.131,0-11.096,4.965-11.096,11.096v25.928  c0,2.633-0.312,5.184-0.916,7.64c-3.424,14.177-16.217,24.7-31.58,24.7h-0.822c-17.466,0-31.601-14.187-31.549-31.653l0.146-46.932  c0.01-3.601,1.478-6.87,3.841-9.222c2.373-2.363,5.631-3.82,9.243-3.82c7.224,0,13.084-5.86,13.084-13.084v-35.275  c0-12.053-9.763-21.816-21.816-21.816H52.803c-18.371,0-33.828-14.499-34.203-32.87c-0.375-18.85,14.801-34.255,33.568-34.255  h406.998C477.547,179.06,493.025,193.559,493.389,211.93z"/>
<path style="fill: #ffbf23;" d="M493.389,211.93c0.073,3.466-0.385,6.807-1.28,9.961c-63.69-0.062-215.875-1.322-239.377-0.552  c-31.892,1.051-39.084,5.829-39.084,22.379v1.967c-30.518,1.155-37.471,6.047-37.471,22.316v59.527c0,3.06-1.239,5.839-3.247,7.848  c-2.009,2.009-4.778,3.247-7.838,3.247c-6.131,0-11.096,4.965-11.096,11.096v25.928c0,2.633-0.312,5.184-0.916,7.64  c-15.051-2.425-26.532-15.509-26.48-31.247l0.146-46.922c0.01-3.612,1.478-6.87,3.841-9.222c2.373-2.363,5.631-3.82,9.243-3.82  c7.224,0,13.084-5.86,13.084-13.084v-35.275c0-12.053-9.763-21.816-21.816-21.816H90.274c-18.371,0-33.828-14.499-34.203-32.87  c-0.073-3.466,0.385-6.807,1.291-9.971h401.804C477.547,179.06,493.025,193.559,493.389,211.93z"/>
<path style="fill:#EEBF00;" d="M301.371,144.94l-74.266,74.297c-7.442,7.442-16.217,12.74-25.564,15.873  c-23.045,7.786-49.524,2.488-67.864-15.873L59.381,144.94H301.371z"/>
<path style="fill:#FFD422;" d="M301.371,144.94l-74.266,74.297c-7.442,7.442-16.217,12.74-25.564,15.873  c-9.337-3.133-18.111-8.431-25.543-15.873l-74.297-74.297H301.371z"/>
<path style="fill: #770101;" d="M512,155.391c0,0.552-0.021,1.093-0.052,1.634c-0.406,6.984-3.404,13.281-8.046,17.924  c-5.007,5.007-11.918,8.098-19.558,8.098H27.656C12.386,183.046,0,170.66,0,155.391C0,122.25,15.363,97.3,38.564,78.533  c18.829-15.238,42.831-26.407,67.958-34.598C176.822,21.047,256,21.473,256,21.473S512,20.089,512,155.391z"/>
<path style="fill: #920101;" d="M512,155.391c0,0.552-0.021,1.093-0.052,1.634H83.862c-15.269,0-27.656-12.386-27.656-27.656  c0-33.141,15.363-58.091,38.564-76.857c3.726-3.019,7.65-5.87,11.751-8.577C176.822,21.047,256,21.473,256,21.473  S512,20.089,512,155.391z"/>
<g>
	<path style="fill:#FFF5CC;" d="M393.6,69.855c4.439,4.698,4.229,12.105-0.468,16.545c-4.698,4.439-12.105,4.229-16.544-0.468   c-4.439-4.697-12.61-20.974-7.912-25.414S389.161,65.156,393.6,69.855z"/>
	<path style="fill:#FFF5CC;" d="M331.565,127.694c2.317,6.034-0.696,12.804-6.73,15.121c-6.034,2.317-12.804-0.696-15.121-6.73   c-2.317-6.034-3.678-24.195,2.355-26.512C318.103,107.257,329.248,121.66,331.565,127.694z"/>
	<path style="fill:#FFF5CC;" d="M267.703,79.559c0,6.464-5.24,11.703-11.703,11.703c-6.464,0-11.703-5.24-11.703-11.703   c0-6.464,5.24-23.905,11.703-23.905C262.464,55.653,267.703,73.095,267.703,79.559z"/>
	<path style="fill:#FFF5CC;" d="M203.354,135.028c-1.616,6.258-8,10.021-14.258,8.405c-6.258-1.616-10.021-8-8.405-14.258   c1.616-6.258,11.051-21.835,17.31-20.219C204.259,110.572,204.97,128.771,203.354,135.028z"/>
	<path style="fill:#FFF5CC;" d="M138.969,84.05c-2.818,5.816-9.817,8.248-15.635,5.43c-5.816-2.818-8.248-9.817-5.43-15.635   c2.818-5.816,15.137-19.23,20.955-16.411C144.676,60.253,141.787,78.234,138.969,84.05z"/>
</g>
<g>
</g>
<g>
</g>
<g>
</g>
<g>
</g>
<g>
</g>
<g>
</g>
<g>
</g>
<g>
</g>
<g>
</g>
<g>
</g>
<g>
</g>
<g>
</g>
<g>
</g>
<g>
</g>
<g>
</g>
</svg>