<?xml version="1.0" encoding="iso-8859-1"?>
<!-- Generator: Adobe Illustrator 19.0.0, SVG Export Plug-In . SVG Version: 6.00 Build 0)  -->
<svg version="1.1" id="Layer_1" xmlns="http://www.w3.org/2000/svg" xmlns:xlink="http://www.w3.org/1999/xlink" x="0px" y="0px"
	 viewBox="0 0 512.002 512.002" style="enable-background:new 0 0 512.002 512.002;" xml:space="preserve">
<g>
	<circle style="fill:#515151;" cx="209.662" cy="448.974" r="5.746"/>
	<circle style="fill:#515151;" cx="209.662" cy="471.057" r="5.746"/>
	<circle style="fill:#515151;" cx="302.322" cy="448.974" r="5.746"/>
	<circle style="fill:#515151;" cx="302.322" cy="471.057" r="5.746"/>
</g>
<circle style="fill:#386895;" cx="256.001" cy="256" r="256"/>
<path style="fill:#273B7A;" d="M191.715,254.347l211.265,211.266C468.905,419.3,512.001,342.687,512.001,256
	c0-1.412-0.031-2.817-0.053-4.224L351.857,76.459L191.715,254.347z"/>
<rect x="213.334" y="292.219" style="fill:#FCD088;" width="85.333" height="85.333"/>
<rect x="254.57" y="292.219" style="fill:#DDAB62;" width="44.103" height="85.333"/>
<path style="fill:#E2E2E2;" d="M357.765,360.5l-45.22-9.044l-7.992-11.666c-1.496-2.184-4.327-3.007-6.759-1.965l-8.785,3.784
	c-21.064,9.075-44.94,9.054-65.988-0.06l-8.561-3.706c-2.415-1.053-5.239-0.262-6.754,1.893l-8.247,11.719l-45.22,9.044
	c-23.026,4.606-39.598,24.821-39.598,48.3v60.647C155.149,496.328,203.742,512,256.001,512s100.852-15.672,141.36-42.555v-60.647
	C397.361,385.319,380.789,365.104,357.765,360.5z"/>
<path style="fill:#A0A0A0;" d="M357.765,360.5l-45.22-9.044l-7.992-11.666c-1.496-2.184-4.327-3.007-6.759-1.965l-8.785,3.786
	c-10.983,4.732-22.73,6.966-34.442,6.753v163.611c0.479,0.002,0.955,0.028,1.436,0.028c52.258,0,100.852-15.672,141.36-42.555V408.8
	C397.361,385.319,380.787,365.104,357.765,360.5z"/>
<path style="fill:#FCFCFC;" d="M187.333,502.643c21.856,6.077,44.875,9.357,68.668,9.357c23.793,0,46.813-3.281,68.67-9.357V353.88
	l-12.126-2.426l-7.992-11.666c-1.496-2.184-4.327-3.007-6.759-1.965l-8.785,3.786c-21.064,9.075-44.94,9.054-65.988-0.06
	l-8.561-3.706c-2.415-1.053-5.239-0.262-6.754,1.893l-8.247,11.719l-12.124,2.424v148.764H187.333z"/>
<path style="fill:#EFEFEF;" d="M312.545,351.454l-7.992-11.666c-1.496-2.184-4.327-3.007-6.759-1.965l-8.785,3.786
	c-10.983,4.732-22.73,6.966-34.442,6.753v163.612c0.479,0.003,0.955,0.024,1.436,0.024c23.793,0,46.813-3.281,68.67-9.357V353.878
	L312.545,351.454z"/>
<path style="fill:#FFEDB5;" d="M342.322,218.064c0.433-4.003,0.659-7.949,0.659-11.797c0-50.902-38.943-92.167-86.98-92.167
	s-86.98,41.265-86.98,92.167c0,3.848,0.226,7.794,0.659,11.797c-8.437,2.193-12.452,15.172-8.964,29.063
	c3.498,13.934,13.215,23.502,21.707,21.371c0.774-0.195,1.496-0.507,2.193-0.874c15.719,31.549,41.827,57.144,71.385,57.144
	s55.668-25.595,71.385-57.144c0.696,0.367,1.421,0.681,2.193,0.874c8.492,2.131,18.21-7.437,21.707-21.371
	C354.774,233.236,350.759,220.257,342.322,218.064z"/>
<path style="fill:#E8CF89;" d="M342.322,218.064c0.433-4.003,0.659-7.949,0.659-11.797c0-50.902-38.943-92.167-86.98-92.167
	c-0.481,0-0.955,0.031-1.436,0.038v210.591c0.478,0.014,0.955,0.038,1.436,0.038c29.558,0,55.668-25.597,71.385-57.144
	c0.696,0.367,1.421,0.681,2.193,0.874c8.492,2.131,18.21-7.437,21.707-21.371C354.774,233.236,350.759,220.257,342.322,218.064z"/>
<path style="fill:#3A3A3A;" d="M172.448,221.189c12.574,6.172,13.402,30.43,13.402,30.43s14.562-49.983,9.052-68.087
	c-5.51-18.104,9.183-19.346,9.183-19.346c18.427,6.065,36.026,8.097,51.345,8.123v-58.428
	C168.99,114.331,159.902,215.031,172.448,221.189z"/>
<path style="fill:#333333;" d="M256.001,113.871c-0.195,0-0.381,0.01-0.574,0.01v58.428c30.918,0.05,52.493-8.123,52.493-8.123
	s14.693,1.241,9.183,19.346c-5.51,18.104,9.052,68.087,9.052,68.087s0.826-24.257,13.402-30.43
	C352.133,215.016,342.98,113.871,256.001,113.871z"/>
<g>
	<circle style="fill:#515151;" cx="209.662" cy="404.825" r="5.746"/>
	<circle style="fill:#515151;" cx="209.662" cy="426.908" r="5.746"/>
	<circle style="fill:#515151;" cx="302.322" cy="404.825" r="5.746"/>
	<circle style="fill:#515151;" cx="302.322" cy="426.908" r="5.746"/>
</g>
<path style="fill:#EFEFEF;" d="M361.159,106.174c0-28.803-23.349-52.152-52.152-52.152c-9.678,0-18.735,2.646-26.503,7.24
	c-7.768-4.594-16.825-7.24-26.503-7.24c-9.678,0-18.735,2.646-26.503,7.24c-7.768-4.594-16.825-7.24-26.503-7.24
	c-28.803,0-52.152,23.349-52.152,52.152c0,15.512,6.778,29.432,17.527,38.984v50.785h175.264V145.16
	C354.381,135.606,361.159,121.685,361.159,106.174z"/>
<path style="fill:#A0A0A0;" d="M309.009,54.022c-9.68,0-18.735,2.646-26.503,7.24c-7.768-4.594-16.825-7.24-26.503-7.24
	c-0.483,0-0.957,0.036-1.436,0.048v141.872h89.067V145.16c10.749-9.554,17.527-23.474,17.527-38.986
	C361.159,77.372,337.81,54.022,309.009,54.022z"/>
<g>
</g>
<g>
</g>
<g>
</g>
<g>
</g>
<g>
</g>
<g>
</g>
<g>
</g>
<g>
</g>
<g>
</g>
<g>
</g>
<g>
</g>
<g>
</g>
<g>
</g>
<g>
</g>
<g>
</g>
</svg>
