<?xml version="1.0" encoding="iso-8859-1"?>
<!-- Generator: Adobe Illustrator 19.0.0, SVG Export Plug-In . SVG Version: 6.00 Build 0)  -->
<svg version="1.1" id="Layer_1" xmlns="http://www.w3.org/2000/svg" xmlns:xlink="http://www.w3.org/1999/xlink" x="0px" y="0px"
	 viewBox="0 0 512 512" style="enable-background:new 0 0 512 512;" xml:space="preserve">
<circle style="fill:#D48B07;" cx="256" cy="256" r="256"/>
<path style="fill:#FF5419;" d="M507.782,302.463L321.315,115.995l-56.658,252.849l112.642,112.642
	C444.444,445.288,493.568,379.982,507.782,302.463z"/>
<path style="fill:#51331E;" d="M166.933,211.178c0,0-0.574,95.965,48.269,161.473H296.8c0,0,41.948-49.419,37.926-119.524
	C330.704,183.022,166.933,211.178,166.933,211.178z"/>
<path style="fill:#3D2414;" d="M334.726,253.126c-1.903-33.168-39.567-44.335-78.726-46.902V372.65h40.8
	C296.8,372.652,338.747,323.232,334.726,253.126z"/>
<rect x="213.333" y="293.685" style="fill:#FCD088;" width="85.333" height="104.296"/>
<rect x="256" y="293.685" style="fill:#DDAB62;" width="42.665" height="104.296"/>
<path style="fill:#FFEDB5;" d="M347.529,205.44c0.459-4.244,0.698-8.428,0.698-12.509c0-53.974-41.293-97.728-92.229-97.728
	s-92.229,43.754-92.229,97.728c0,4.08,0.24,8.264,0.698,12.509c-8.945,2.326-13.202,16.087-9.506,30.817
	c3.708,14.776,14.014,24.921,23.018,22.661c0.821-0.205,1.586-0.538,2.326-0.927c16.667,33.452,44.351,60.594,75.693,60.594
	s59.027-27.139,75.693-60.594c0.74,0.39,1.505,0.722,2.326,0.927c9.004,2.26,19.309-7.885,23.018-22.661
	C360.732,221.527,356.476,207.763,347.529,205.44z"/>
<path style="fill:#E8CF89;" d="M347.529,205.44c0.459-4.244,0.698-8.428,0.698-12.509c0-53.974-41.291-97.728-92.227-97.728v223.38
	c31.341,0,59.027-27.141,75.692-60.594c0.74,0.39,1.505,0.722,2.326,0.927c9.004,2.26,19.309-7.885,23.018-22.661
	C360.732,221.527,356.476,207.763,347.529,205.44z"/>
<path style="fill:#FFAD9E;" d="M216.064,376.099c0,0,34.766,24.423,84.471,0l-44.822,115.79L216.064,376.099z"/>
<path style="fill:#FF6262;" d="M256,386.941v104.205l44.534-115.047C283.722,384.359,268.628,387.022,256,386.941z"/>
<path style="fill:#D9EDEC;" d="M357.762,361.951l-45.22-9.044l-7.992-11.666c-1.496-2.184-4.327-3.007-6.759-1.965l-41.793,140.255
	l-41.543-140.238c-2.415-1.053-5.239-0.262-6.754,1.893l-8.247,11.719l-45.22,9.044c-23.023,4.605-39.596,24.821-39.596,48.3v59.194
	C155.148,496.326,203.74,512,256,512c52.258,0,100.85-15.672,141.359-42.555V410.25
	C397.359,386.772,380.787,366.556,357.762,361.951z"/>
<path style="fill:#B7CECC;" d="M397.359,410.252c0-23.48-16.574-43.696-39.596-48.3l-45.22-9.044l-7.992-11.666
	c-1.496-2.184-4.327-3.007-6.759-1.965L256,479.529V512c52.258,0,100.85-15.672,141.359-42.555V410.252z"/>
<g>
	<path style="fill:#38C6D9;" d="M192.215,415.03c-2.857,0-5.172-2.315-5.172-5.172v-58.613c0-2.857,2.315-5.172,5.172-5.172
		s5.172,2.315,5.172,5.172v58.613C197.387,412.715,195.072,415.03,192.215,415.03z"/>
	<path style="fill:#38C6D9;" d="M332.031,400.377c-2.857,0-5.172-2.315-5.172-5.172v-43.039c0-2.857,2.315-5.172,5.172-5.172
		s5.172,2.315,5.172,5.172v43.039C337.203,398.062,334.889,400.377,332.031,400.377z"/>
</g>
<circle style="fill:#606060;" cx="192.215" cy="423.857" r="23.488"/>
<path style="fill:#38C6D9;" d="M347.762,473.702h-1.293c-2.857,0-5.172-2.315-5.172-5.172s2.315-5.172,5.172-5.172h1.293
	c1.901,0,3.448-1.545,3.448-3.446v-38.143c0-10.576-8.602-19.178-19.178-19.178c-10.576,0-19.178,8.602-19.178,19.178v38.143
	c0,1.901,1.546,3.446,3.448,3.446c2.857,0,5.172,2.315,5.172,5.172s-2.315,5.172-5.172,5.172c-7.604,0-13.791-6.185-13.791-13.79
	v-38.143c0-16.277,13.245-29.522,29.522-29.522c16.277,0,29.522,13.245,29.522,29.522v38.143
	C361.553,467.516,355.368,473.702,347.762,473.702z"/>
<path style="fill:#6D462B;" d="M224.396,151.992c0,0,118.949,32.18,97.689,167.219c0,0,83.322-70.106,16.665-180.436
	c-52.191-86.385-157.449-54.015-164.345-9.194c0,0-24.466,16.103-9.933,75.859C164.467,205.44,201.411,194.513,224.396,151.992z"/>
<path style="fill:#4C2E19;" d="M338.747,138.774C316.797,102.441,285.46,87.121,256,84.894v81.356
	c33.573,19.989,80.041,64.31,66.082,152.96C322.084,319.21,405.406,249.104,338.747,138.774z"/>
<g>
</g>
<g>
</g>
<g>
</g>
<g>
</g>
<g>
</g>
<g>
</g>
<g>
</g>
<g>
</g>
<g>
</g>
<g>
</g>
<g>
</g>
<g>
</g>
<g>
</g>
<g>
</g>
<g>
</g>
</svg>
