<?xml version="1.0" encoding="iso-8859-1"?>
<!-- Generator: Adobe Illustrator 19.0.0, SVG Export Plug-In . SVG Version: 6.00 Build 0)  -->
<svg version="1.1" id="Layer_1" xmlns="http://www.w3.org/2000/svg" xmlns:xlink="http://www.w3.org/1999/xlink" x="0px" y="0px"
	 viewBox="0 0 512.002 512.002" style="enable-background:new 0 0 512.002 512.002;" xml:space="preserve">
<circle style="fill:#FF7F4F;" cx="256.001" cy="256" r="256"/>
<path style="fill:#FF5419;" d="M242.067,402.963l95.697,95.697c90.286-30.41,158.036-109.797,171.692-206.57L322.897,104.736
	L242.067,402.963z"/>
<rect x="213.334" y="292.219" style="fill:#FCD088;" width="85.333" height="85.333"/>
<rect x="255.432" y="292.219" style="fill:#DDAB62;" width="43.236" height="85.333"/>
<path style="fill:#D9EDEC;" d="M357.765,360.5l-45.22-9.044l-7.992-11.666c-1.496-2.184-4.327-3.007-6.759-1.965l-41.793,18.004
	l-41.543-17.987c-2.415-1.053-5.239-0.262-6.754,1.893l-8.247,11.719l-45.22,9.044c-23.024,4.606-39.596,24.821-39.596,48.3v60.647
	c40.508,26.883,89.1,42.555,141.36,42.555c44.166,0,85.721-11.185,121.985-30.877c6.644-4.113,13.107-8.32,19.375-12.514V408.8
	C397.361,385.319,380.789,365.104,357.765,360.5z"/>
<path style="fill:#C1D3D1;" d="M357.765,360.5l-45.22-9.044l-7.992-11.666c-1.496-2.184-4.327-3.007-6.759-1.965l-41.793,18.004
	l-0.574-0.248V511.99c0.191,0,0.381,0.01,0.574,0.01c44.166,0,85.721-11.185,121.985-30.877c6.644-4.113,13.107-8.32,19.375-12.514
	V408.8C397.361,385.319,380.789,365.104,357.765,360.5z"/>
<path style="fill:#FFEDB5;" d="M347.532,205.44c0.459-4.244,0.698-8.428,0.698-12.509c0-53.974-41.293-97.728-92.229-97.728
	s-92.229,43.753-92.229,97.728c0,4.08,0.24,8.264,0.698,12.509c-8.945,2.326-13.202,16.087-9.506,30.817
	c3.708,14.776,14.014,24.921,23.018,22.661c0.821-0.205,1.586-0.538,2.326-0.927c16.667,33.452,44.351,60.594,75.693,60.594
	s59.027-27.139,75.693-60.594c0.74,0.39,1.505,0.722,2.326,0.927c9.004,2.26,19.309-7.885,23.018-22.661
	C360.733,221.527,356.477,207.763,347.532,205.44z"/>
<path style="fill:#E8CF89;" d="M347.532,205.44c0.459-4.244,0.698-8.428,0.698-12.509c0-53.974-41.293-97.728-92.229-97.728
	c-0.193,0-0.381,0.014-0.574,0.016v223.349c0.191,0.002,0.383,0.016,0.574,0.016c31.342,0,59.027-27.139,75.693-60.594
	c0.74,0.39,1.505,0.722,2.326,0.927c9.004,2.26,19.309-7.885,23.018-22.661C360.733,221.527,356.477,207.763,347.532,205.44z"/>
<path style="fill:#B7CECC;" d="M300.681,401.291l-44.68-44.539l-44.68,44.539l-11.864-49.836l-14.567,2.395l11.667,151.199
	c19.078,4.537,38.977,6.953,59.444,6.953c25.512,0,50.147-3.749,73.399-10.699l-2.296-147.453l-14.558-2.395L300.681,401.291z"/>
<path style="fill:#90ADAA;" d="M329.4,501.301l-2.296-147.453l-14.558-2.395l-11.864,49.836l-44.68-44.539l-0.574,0.572v154.667
	c0.191,0,0.383,0.009,0.574,0.009C281.513,512,306.148,508.251,329.4,501.301z"/>
<path style="fill:#494948;" d="M162.048,189.918c0,0,1.724,18.963,6.034,30.456l8.045-0.288c0,0-2.012-15.515,14.941-31.318
	S162.048,189.918,162.048,189.918z"/>
<path style="fill:#333333;" d="M349.954,189.918c0,0-1.724,18.963-6.034,30.456l-8.045-0.288c0,0,2.012-15.515-14.941-31.318
	C303.982,172.965,349.954,189.918,349.954,189.918z"/>
<path style="fill:#FEE187;" d="M354.263,190.923c0-25.984-8.239-48.502-21.964-65.708l2.819-3.258
	c1.817-2.1,1.588-5.277-0.514-7.094l-17.601-15.226c-2.1-1.817-5.275-1.588-7.092,0.514l-2.653,3.067
	c-10.409-6.285-22.1-10.593-34.592-12.638v-4.96c0-2.777-2.251-5.029-5.029-5.029h-23.273c-2.777,0-5.029,2.251-5.029,5.029v4.96
	c-12.491,2.043-24.183,6.351-34.592,12.638l-2.653-3.067c-1.817-2.1-4.992-2.331-7.094-0.514l-17.601,15.226
	c-2.1,1.817-2.331,4.992-0.514,7.094l2.819,3.258c-13.724,17.206-21.963,39.724-21.963,65.708H354.263z"/>
<path style="fill:#FFC61B;" d="M332.299,125.214l2.819-3.258c1.817-2.1,1.588-5.277-0.514-7.094l-17.601-15.226
	c-2.1-1.817-5.275-1.588-7.092,0.514l-2.653,3.067c-10.409-6.285-22.1-10.593-34.592-12.638v-4.96c0-2.777-2.251-5.029-5.029-5.029
	h-12.21v110.33h98.837C354.263,164.938,346.025,142.42,332.299,125.214z"/>
<path style="fill:#940030;" d="M256.001,163.74c-39.421,0-75.143,9.969-101.224,26.124c-1.995,1.236-1.131,4.31,1.215,4.31H356.01
	c2.346,0,3.21-3.074,1.215-4.31C331.144,173.709,295.421,163.74,256.001,163.74z"/>
<path style="fill:#6D052A;" d="M357.225,189.864c-26.081-16.155-61.804-26.124-101.224-26.124c-0.193,0-0.381,0.009-0.574,0.009
	v30.423H356.01C358.356,194.172,359.22,191.1,357.225,189.864z"/>
<path style="fill:#273B7A;" d="M358.385,360.108l-31.282-6.261l-30.77,154.979c37.247-5.896,71.818-19.82,101.888-39.95v-60.173
	C398.223,385.081,381.549,364.742,358.385,360.108z"/>
<path style="fill:#366695;" d="M153.616,360.108l31.273-6.261l30.777,154.979c-37.247-5.896-71.818-19.82-101.888-39.95v-60.173
	C113.779,385.081,130.452,364.742,153.616,360.108z"/>
<path style="fill:#494948;" d="M237.324,375.513l10.488,13.478v122.864c2.72,0.086,5.448,0.143,8.189,0.143s5.468-0.059,8.189-0.143
	V388.991l10.488-13.478l-18.677-18.761L237.324,375.513z"/>
<path style="fill:#333333;" d="M256.001,356.752l-0.574,0.578v154.662c0.191,0,0.383,0.01,0.574,0.01
	c2.741,0,5.468-0.059,8.189-0.143V388.994l10.488-13.477L256.001,356.752z"/>
<g>
	<path style="fill:#FFC61B;" d="M155.152,449.077c-2.381,0-4.31-1.929-4.31-4.31v-29.88c0-2.381,1.929-4.31,4.31-4.31
		s4.31,1.929,4.31,4.31v29.88C159.462,447.148,157.533,449.077,155.152,449.077z"/>
	<path style="fill:#FFC61B;" d="M166.072,452.237c-1.903,0-3.448-1.545-3.448-3.448v-29.88c0-1.903,1.545-3.448,3.448-3.448
		s3.448,1.545,3.448,3.448v29.88C169.519,450.694,167.975,452.237,166.072,452.237z"/>
</g>
<path style="fill:#273B7A;" d="M179.144,482.406h-25.859c-3.887,0-7.039-3.151-7.039-7.039v-46.689h39.936v46.689
	C186.183,479.254,183.031,482.406,179.144,482.406z"/>
<g>
</g>
<g>
</g>
<g>
</g>
<g>
</g>
<g>
</g>
<g>
</g>
<g>
</g>
<g>
</g>
<g>
</g>
<g>
</g>
<g>
</g>
<g>
</g>
<g>
</g>
<g>
</g>
<g>
</g>
</svg>
