<?xml version="1.0"?>
<svg xmlns="http://www.w3.org/2000/svg" xmlns:xlink="http://www.w3.org/1999/xlink" version="1.1" id="Capa_1" x="0px" y="0px" viewBox="0 0 455.431 455.431" style="enable-background:new 0 0 455.431 455.431;" xml:space="preserve" width="512px" height="512px" class=""><g><path style="fill:#770101" d="M405.39,412.764c-69.689,56.889-287.289,56.889-355.556,0s-62.578-300.089,0-364.089  s292.978-64,355.556,0S475.079,355.876,405.39,412.764z" data-original="#5CA4DA" class="" data-old_color="#5CA4DA"/><path style="fill:#920101" d="M229.034,313.209c-62.578,49.778-132.267,75.378-197.689,76.8  C-17.01,307.52-7.055,106.987,49.834,48.676c51.2-52.622,211.911-62.578,304.356-29.867  C376.945,112.676,330.012,232.142,229.034,313.209z" data-original="#6DAFE0" class="active-path" data-old_color="#6DAFE0"/><path style="fill:#FFFFFF" d="M237.567,246.364v-48.356h58.311v48.356h31.289v52.622h-31.289v65.422h-58.311v-65.422H126.634  v-46.933L224.767,89.92h66.844l-93.867,156.444L237.567,246.364L237.567,246.364z" data-original="#FFFFFF" class="" data-old_color="#FFFFFF"/></g> </svg>
