<?xml version="1.0" encoding="iso-8859-1"?>
<!-- Generator: Adobe Illustrator 19.0.0, SVG Export Plug-In . SVG Version: 6.00 Build 0)  -->
<svg version="1.1" id="Layer_1" xmlns="http://www.w3.org/2000/svg" xmlns:xlink="http://www.w3.org/1999/xlink" x="0px" y="0px"
	 viewBox="0 0 512.002 512.002" style="enable-background:new 0 0 512.002 512.002;" xml:space="preserve">
<circle style="fill:#FF7F4F;" cx="256.001" cy="256" r="256"/>
<path style="fill:#FF5419;" d="M141.797,431.411l78.033,78.033c11.819,1.672,23.892,2.557,36.171,2.557
	c141.384,0,256-114.616,256-256c0-1.85-0.031-3.691-0.071-5.53L359.125,97.664L141.797,431.411z"/>
<rect x="213.334" y="292.219" style="fill:#FCD088;" width="85.333" height="93.522"/>
<rect x="255.432" y="292.219" style="fill:#DDAB62;" width="43.236" height="93.522"/>
<path style="fill:#386895;" d="M357.765,360.5l-45.22-9.044l-7.992-11.666c-1.496-2.184-4.327-3.007-6.759-1.965l-41.793,41.722
	l-41.543-41.703c-2.415-1.053-5.239-0.262-6.754,1.893l-8.247,11.719l-45.22,9.044c-23.024,4.604-39.596,24.819-39.596,48.299
	v60.647c40.508,26.883,89.1,42.555,141.36,42.555s100.852-15.672,141.36-42.555v-60.647
	C397.361,385.319,380.789,365.104,357.765,360.5z"/>
<path style="fill:#273B7A;" d="M357.765,360.5l-45.22-9.044l-7.992-11.666c-1.496-2.184-4.327-3.007-6.759-1.965l-41.793,41.722
	l-0.574-0.576V511.99c0.191,0,0.381,0.01,0.574,0.01c52.26,0,100.852-15.672,141.36-42.555v-60.647
	C397.361,385.319,380.789,365.104,357.765,360.5z"/>
<path style="fill:#FFEDB5;" d="M347.532,205.44c0.459-4.244,0.698-8.428,0.698-12.509c0-53.974-41.293-97.728-92.229-97.728
	s-92.229,43.753-92.229,97.728c0,4.08,0.24,8.264,0.698,12.509c-8.945,2.326-13.202,16.087-9.506,30.817
	c3.708,14.776,14.014,24.921,23.018,22.661c0.821-0.205,1.586-0.538,2.326-0.927c16.667,33.452,44.351,60.594,75.693,60.594
	s59.027-27.139,75.693-60.594c0.74,0.39,1.505,0.722,2.326,0.927c9.004,2.26,19.309-7.885,23.018-22.661
	C360.733,221.527,356.477,207.763,347.532,205.44z"/>
<path style="fill:#E8CF89;" d="M347.532,205.44c0.459-4.244,0.698-8.428,0.698-12.509c0-53.974-41.293-97.728-92.229-97.728
	c-0.193,0-0.381,0.014-0.574,0.016v223.349c0.191,0.002,0.381,0.016,0.574,0.016c31.342,0,59.027-27.139,75.693-60.594
	c0.74,0.39,1.505,0.722,2.326,0.927c9.004,2.26,19.309-7.885,23.018-22.661C360.733,221.527,356.477,207.763,347.532,205.44z"/>
<path style="fill:#121149;" d="M341.765,460.283h-34.478c-6.427,0-11.636,5.21-11.636,11.636v37.021
	c20.123-3.129,39.465-8.611,57.751-16.141v-20.88C353.402,465.492,348.192,460.283,341.765,460.283z"/>
<path style="fill:#263A7A;" d="M204.715,460.283h-34.478c-6.427,0-11.636,5.21-11.636,11.636v20.882
	c18.285,7.53,37.628,13.01,57.751,16.141v-37.023C216.351,465.492,211.141,460.283,204.715,460.283z"/>
<g>
	<path style="fill:#121149;" d="M237.324,396.776l10.488,13.477v101.604c2.72,0.086,5.448,0.143,8.189,0.143
		s5.468-0.059,8.189-0.143V410.253l10.488-13.477l-18.677-17.229L237.324,396.776z"/>
	<path style="fill:#121149;" d="M237.324,396.776l10.488,13.477v101.604c2.531,0.079,5.068,0.126,7.614,0.134V380.076
		L237.324,396.776z"/>
</g>
<path style="fill:#080833;" d="M256.001,379.547l-0.574,0.529v131.915c0.191,0,0.381,0.01,0.574,0.01
	c2.741,0,5.468-0.059,8.189-0.143V410.255l10.488-13.477L256.001,379.547z"/>
<path style="fill:#273B7A;" d="M256.001,379.547l-43.973-51.484c-1.872-2.007-5.26-2.003-7.127,0.007l-16.994,24.828l36.664,47.176
	c3.053,4.472,10.119,4.596,13.357,0.233L256.001,379.547z"/>
<path style="fill:#121149;" d="M256.001,379.547l43.973-51.484c1.872-2.007,5.26-2.003,7.127,0.007l16.994,24.828l-36.664,47.176
	c-3.053,4.472-10.119,4.596-13.357,0.233L256.001,379.547z"/>
<path style="fill:#494948;" d="M162.048,189.918c0,0,1.724,18.963,6.034,30.456l8.045-0.288c0,0-2.012-15.515,14.941-31.318
	S162.048,189.918,162.048,189.918z"/>
<path style="fill:#5380A5;" d="M384.647,141.097c0,32.787-57.74,45.085-128.79,45.085s-128.503-12.298-128.503-45.085
	s57.597-85.07,128.646-85.07S384.647,108.31,384.647,141.097z"/>
<path style="fill:#366695;" d="M256.001,56.027c-0.193,0-0.381,0.012-0.574,0.014V186.18c0.145,0,0.286,0.002,0.431,0.002
	c71.049,0,128.79-12.298,128.79-45.085S327.052,56.027,256.001,56.027z"/>
<path style="fill:#333333;" d="M349.954,189.918c0,0-1.724,18.963-6.034,30.456l-8.045-0.288c0,0,2.012-15.515-14.941-31.318
	C303.982,172.965,349.954,189.918,349.954,189.918z"/>
<path style="fill:#273B7A;" d="M256.001,213.999c39.421,0,75.143-9.969,101.224-26.124c1.995-1.236,1.131-4.31-1.215-18.963H155.992
	c-2.346,14.653-3.21,17.727-1.215,18.963C180.858,204.029,216.58,213.999,256.001,213.999z"/>
<path style="fill:#121149;" d="M356.01,168.912H255.427v45.078c0.193,0,0.381,0.009,0.574,0.009
	c39.421,0,75.143-9.969,101.224-26.124C359.22,186.639,358.356,183.565,356.01,168.912z"/>
<path style="fill:#366695;" d="M355.746,188.383c-66.036-9.375-133.022-9.395-199.061-0.06c-1.534,0.217-2.953-0.846-3.167-2.382
	c-0.986-7.071-1.97-14.143-2.955-21.214c-0.321-2.301,1.284-4.439,3.584-4.76c67.589-9.433,136.121-9.433,203.71,0
	c2.301,0.321,3.905,2.458,3.584,4.76c-1.005,7.213-2.01,14.427-3.015,21.64C358.246,187.668,357.046,188.568,355.746,188.383z"/>
<path style="fill:#273B7A;" d="M357.856,159.968c-33.985-4.742-68.208-7.097-102.429-7.07v28.446
	c33.518-0.028,67.039,2.315,100.318,7.039c1.3,0.184,2.5-0.715,2.681-2.015c1.005-7.213,2.01-14.427,3.015-21.64
	C361.763,162.426,360.158,160.289,357.856,159.968z"/>
<ellipse style="fill:#FFC61B;" cx="256.001" cy="108.318" rx="18.963" ry="23.561"/>
<path style="fill:#FEE187;" d="M237.038,108.318c0,12.771,8.183,23.143,18.389,23.524V84.795
	C245.223,85.175,237.038,95.547,237.038,108.318z"/>
<g>
</g>
<g>
</g>
<g>
</g>
<g>
</g>
<g>
</g>
<g>
</g>
<g>
</g>
<g>
</g>
<g>
</g>
<g>
</g>
<g>
</g>
<g>
</g>
<g>
</g>
<g>
</g>
<g>
</g>
</svg>
